<?xml version="1.0" encoding="UTF-8" standalone="no"?><svg xmlns="http://www.w3.org/2000/svg" height="1772.832" width="3055.428" fill="none"><path d="M3056.89 1774.295L0 1772.832V0l3055.428 3.4z" fill="url(#paint0_radial)"/><path d="M-.948.996V823H977V.996H-.947z" fill="url(#paint1_linear)" fill-opacity=".59"/><ellipse ry="380.5" rx="425" cy="561.048" cx="1359.478" fill="url(#paint2_radial)"/><path d="M-7.706 588.307L504-23-11.103-51.2z" fill="#70ebf6" fill-opacity=".05"/><path d="M214.8 1212.775L384-48.5l-390.5 20-41.245 1434.061z" fill="#70ebf6" fill-opacity=".05"/><path d="M-.948.996v459.943L967.869.996H-.947z" fill="#70ebf6" fill-opacity=".05"/><path d="M-.948-12.67L-93-4l2.459 4.996H-.947V-12.67zm0 13.666l-5.1 1209.044L307 809 383.816.996z" fill="#70ebf6" fill-opacity=".05"/><path d="M68.5-56.5L-.947 67.6l-15.302 1391.238 491.164 5.919L649.5 1019.5z" fill="#70ebf6" fill-opacity=".05"/><path d="M232.496.996L-.947 14.697l-15.302 1444.14 261.132-26.676L700.158.996z" fill="#70ebf6" fill-opacity=".05"/><g opacity=".25" stroke="#68bfff"><path d="M1349.913 303.667l.009-.008.007-.007c84.001-83.771 194.331-125.577 304.921-125.577 110.6 0 221.41 41.806 305.41 125.577 168.01 167.545 168.01 441.089 0 608.634-168.01 167.545-442.32 167.545-610.331 0l-.005-.005c-14.963-14.518-21.111-35.739-15.804-55.871 5.309-20.138 20.99-35.775 41.18-41.07 20.21-5.297 41.97.355 56.52 15.279v.005c123.72 123.38 322.83 123.38 446.55 0 123.72-123.378 123.72-321.931 0-445.311-123.72-123.378-322.83-123.378-446.55 0l-.01.009v.009c-21.52 23.629-58.2 25.28-81.898 3.818-23.694-21.458-25.35-58.031-3.829-81.662l.001-.001a55.403 55.403 0 0 1 3.829-3.819zm-249.092 95.988h.001c10.113-.137 20.306 2.549 29.703 7.647l.239-.44-.239.44c25.035 13.576 37.184 42.465 29.223 69.748l-.003.01c-24.393 90.782-24.393 168.63 0 259.411l.483-.13-.483.13c8.694 32.294-10.725 65.376-43.119 74.048-32.386 8.671-65.561-10.696-74.258-42.997-29.157-108.518-29.157-212.997 0-321.513l.002-.006c2.363-9.269 7.08-18.139 13.415-25.323l.003-.003c11.652-13.434 28.163-20.814 45.033-21.022zm153.457 68.749l.001-.001c9.502-8.864 21.712-14.037 34.003-15.282 12.288-1.25 24.813 1.346 35.916 8.117 22.204 13.539 32.552 40.471 25.381 65.427l-.002.009c-15.521 57.768-15.037 104.828.483 162.59l.48-.13-.48.13c8.29 30.807-10.283 62.411-41.185 70.678-30.902 8.267-62.589-9.782-70.878-40.59-20.075-74.706-20.556-148.063-.484-222.764l.002-.007c2.727-10.779 8.603-20.599 16.763-28.177zm238.632-21.69c44.49-44.373 103.23-66.81 161.94-66.81 58.71 0 117.45 22.437 161.95 66.81 88.99 88.746 88.99 234.245 0 322.99-89 88.746-234.9 88.746-323.89 0-88.99-88.745-88.99-234.244 0-322.99zm244.9 78.772c-23.06-22.99-53.03-34.348-82.96-34.348-29.92.001-59.41 11.359-82.47 34.348-46.11 45.983-46.11 119.465 0 165.448 46.11 45.982 119.31 45.982 165.43 0 46.1-45.982 46.1-119.465 0-165.448z"/><path d="M2128.33 180.16v.004c5.65 16.846 3.57 34.761-4.83 49.349-5.04 8.744-12.56 16.118-21.74 21.58-24.48 14.55-55.6 10.24-75.07-10.502l-.01-.008c-65.87-67.218-133.02-106.919-223.76-132.29h-.01c-32.29-9.011-50.92-42.542-41.88-74.749 9.04-32.2 42.66-50.784 74.96-41.771 108.48 30.328 198.6 83.609 277.33 163.96l.01.005c6.79 6.754 12.03 15.324 15 24.423z"/><path d="M2119.42 1038.969v.003c-3 9.086-8.28 17.634-15.1 24.362v.004c-79.06 80.042-169.39 132.962-277.99 162.862-32.33 8.89-65.88-9.83-74.79-42.07l-.48.14.48-.14c-8.91-32.24 9.85-65.696 42.18-74.579 90.85-25.013 158.16-64.445 224.29-131.403l.01-.008c19.55-20.665 50.69-24.852 75.11-10.204 9.16 5.498 16.65 12.901 21.65 21.665 8.35 14.62 10.35 32.544 4.64 49.368z"/></g><defs id="defs5963"><filter filterUnits="userSpaceOnUse" height="355" width="1940" y="850" x="-15" id="filter0_i" color-interpolation-filters="sRGB"><feFlood id="feFlood5931" result="BackgroundImageFix" flood-opacity="0"/><feBlend id="feBlend5933" result="shape" in2="BackgroundImageFix" in="SourceGraphic"/><feColorMatrix id="feColorMatrix5935" result="hardAlpha" values="0 0 0 0 0 0 0 0 0 0 0 0 0 0 0 0 0 0 127 0" in="SourceAlpha"/><feOffset id="feOffset5937" dy="3"/><feGaussianBlur id="feGaussianBlur5939" stdDeviation=".5"/><feComposite id="feComposite5941" k3="1" k2="-1" operator="arithmetic" in2="hardAlpha"/><feColorMatrix id="feColorMatrix5943" values="0 0 0 0 0 0 0 0 0 0 0 0 0 0 0 0 0 0 0.15 0"/><feBlend id="feBlend5945" result="effect1_innerShadow" in2="shape"/></filter><radialGradient gradientTransform="matrix(-545.22824 981.4484 -1386.5443 -658.03947 1649.022 573.303)" gradientUnits="userSpaceOnUse" r="1" cy=".154" cx=".047" id="paint0_radial" fx=".047" fy=".154"><stop id="stop5948" stop-color="#0D0D0D"/><stop id="stop5950" stop-color="#2A3248" offset="1"/></radialGradient><linearGradient gradientTransform="translate(70 -3)" gradientUnits="userSpaceOnUse" y2="545.5" x2="507" y1="-19" x1="-91" id="paint1_linear"><stop id="stop5953" stop-color="#104AA5"/><stop id="stop5955" stop-opacity="0" stop-color="#5799FF" offset="1"/></linearGradient><radialGradient gradientTransform="matrix(-11 379.99982 -424.44121 -12.28646 1370.478 561.548)" gradientUnits="userSpaceOnUse" r="1" cy="0" cx="0" id="paint2_radial"><stop id="stop5958"/><stop id="stop5960" stop-opacity="0" stop-color="#1F2534" offset="1"/></radialGradient></defs></svg>